<svg width="249" height="249" viewBox="0 0 249 249" fill="none" xmlns="http://www.w3.org/2000/svg">
<ellipse cx="125.171" cy="125.183" rx="122.602" ry="123.116" fill="#86D7F7"/>
<path fill-rule="evenodd" clip-rule="evenodd" d="M125.034 246.604C191.984 246.604 246.277 192.006 246.277 124.631C246.277 57.2551 191.984 2.65674 125.034 2.65674C58.0638 2.65674 2.80664 57.2427 2.80664 124.597C2.80664 191.952 58.0652 246.604 125.034 246.604ZM125.034 248.604C193.1 248.604 248.277 193.099 248.277 124.631C248.277 56.1617 193.1 0.656738 125.034 0.656738C56.9695 0.656738 0.806641 56.1278 0.806641 124.597C0.806641 193.066 56.9695 248.604 125.034 248.604Z" fill="#0090E3"/>
<path fill-rule="evenodd" clip-rule="evenodd" d="M236.654 144.097C242.678 139.744 245.496 135.319 245.496 131.079C245.496 126.84 242.678 122.415 236.654 118.062C230.676 113.743 221.897 109.77 210.869 106.4C188.836 99.6666 158.278 95.4722 124.438 95.4722C90.5972 95.4722 60.0387 99.6666 38.0065 106.4C26.978 109.77 18.1988 113.743 12.2208 118.062C6.19687 122.415 3.37891 126.84 3.37891 131.079C3.37891 135.319 6.19687 139.744 12.2208 144.097C18.1988 148.416 26.978 152.389 38.0065 155.759C60.0387 162.492 90.5972 166.687 124.438 166.687C158.278 166.687 188.836 162.492 210.869 155.759C221.897 152.389 230.676 148.416 236.654 144.097ZM124.438 168.687C192.401 168.687 247.496 151.849 247.496 131.079C247.496 110.31 192.401 93.4722 124.438 93.4722C56.4742 93.4722 1.37891 110.31 1.37891 131.079C1.37891 151.849 56.4742 168.687 124.438 168.687Z" fill="#0090E3"/>
<path d="M2.80469 125.295L10.0882 89.6731L172.811 69.0054L246.18 122.076C246.18 122.076 246.452 126.049 246.18 128.666C245.908 131.284 245.259 133.137 245.259 133.137L212.314 116.619L101.652 103.277L3.50778 132.643C3.50778 132.643 3.15565 130.648 3.00412 129.158C2.8526 127.668 2.80469 125.295 2.80469 125.295Z" fill="#86D7F7"/>
<path fill-rule="evenodd" clip-rule="evenodd" d="M243.53 130.029L245.059 130.029L245.059 132.029L243.53 132.029L243.53 130.029ZM237.414 130.029L240.472 130.029L240.472 132.029L237.414 132.029L237.414 130.029ZM231.299 130.029L234.357 130.029L234.357 132.029L231.299 132.029L231.299 130.029ZM225.184 130.029L228.242 130.029L228.242 132.029L225.184 132.029L225.184 130.029ZM219.069 130.029L222.126 130.029L222.126 132.029L219.069 132.029L219.069 130.029ZM212.953 130.029L216.011 130.029L216.011 132.029L212.953 132.029L212.953 130.029ZM206.838 130.029L209.896 130.029L209.896 132.029L206.838 132.029L206.838 130.029ZM200.723 130.029L203.78 130.029L203.78 132.029L200.723 132.029L200.723 130.029ZM194.607 130.029L197.665 130.029L197.665 132.029L194.607 132.029L194.607 130.029ZM188.492 130.029L191.55 130.029L191.55 132.029L188.492 132.029L188.492 130.029ZM182.377 130.029L185.434 130.029L185.434 132.029L182.377 132.029L182.377 130.029ZM176.262 130.029L179.319 130.029L179.319 132.029L176.262 132.029L176.262 130.029ZM170.146 130.029L173.204 130.029L173.204 132.029L170.146 132.029L170.146 130.029ZM164.031 130.029L167.089 130.029L167.089 132.029L164.031 132.029L164.031 130.029ZM157.916 130.029L160.973 130.029L160.973 132.029L157.916 132.029L157.916 130.029ZM151.8 130.029L154.858 130.029L154.858 132.029L151.8 132.029L151.8 130.029ZM145.685 130.029L148.743 130.029L148.743 132.029L145.685 132.029L145.685 130.029ZM139.57 130.029L142.627 130.029L142.627 132.029L139.57 132.029L139.57 130.029ZM133.454 130.029L136.512 130.029L136.512 132.029L133.454 132.029L133.454 130.029ZM128.868 130.029L130.397 130.029L130.397 132.029L128.868 132.029L128.868 130.029Z" fill="#545454"/>
<path fill-rule="evenodd" clip-rule="evenodd" d="M247.404 132.547L245.42 132.298C245.471 131.893 245.496 131.487 245.496 131.079C245.496 130.672 245.471 130.266 245.42 129.861L247.404 129.612C247.465 130.099 247.496 130.588 247.496 131.079C247.496 131.571 247.465 132.06 247.404 132.547ZM246.697 126.769L244.823 127.468C244.54 126.71 244.166 125.947 243.696 125.179L245.403 124.136C245.933 125.004 246.365 125.881 246.697 126.769ZM243.675 121.744C243.073 121.024 242.403 120.312 241.667 119.609L240.286 121.055C240.972 121.711 241.591 122.369 242.14 123.027L243.675 121.744ZM239.456 117.68L238.205 119.241C237.505 118.68 236.755 118.122 235.958 117.569L237.097 115.926C237.93 116.503 238.717 117.088 239.456 117.68ZM234.632 114.32L233.587 116.026C232.801 115.544 231.978 115.067 231.121 114.595L232.084 112.842C232.968 113.329 233.818 113.821 234.632 114.32ZM229.471 111.474L228.578 113.263C227.742 112.846 226.879 112.434 225.988 112.026L226.82 110.207C227.73 110.624 228.614 111.046 229.471 111.474ZM224.137 109.03L223.36 110.873C222.491 110.507 221.6 110.145 220.687 109.788L221.414 107.925C222.343 108.288 223.251 108.657 224.137 109.03ZM218.654 106.886L217.971 108.765C217.076 108.44 216.162 108.12 215.23 107.804L215.872 105.909C216.817 106.23 217.745 106.555 218.654 106.886ZM213.091 104.997L212.486 106.903C211.575 106.614 210.648 106.329 209.706 106.049L210.276 104.132C211.229 104.416 212.168 104.704 213.091 104.997ZM207.438 103.314L206.9 105.24C205.982 104.984 205.05 104.731 204.106 104.483L204.614 102.549C205.568 102.8 206.51 103.055 207.438 103.314ZM201.758 101.821L201.278 103.763C200.344 103.532 199.399 103.305 198.443 103.083L198.896 101.135C199.861 101.359 200.815 101.588 201.758 101.821ZM196.034 100.489L195.606 102.443C194.66 102.235 193.704 102.032 192.737 101.833L193.141 99.8742C194.115 100.075 195.08 100.28 196.034 100.489ZM190.273 99.3009L189.892 101.264C188.942 101.08 187.984 100.9 187.016 100.724L187.375 98.756C188.349 98.9337 189.315 99.1153 190.273 99.3009ZM184.482 98.2451L184.145 100.216C183.192 100.053 182.232 99.8942 181.264 99.7387L181.581 97.764C182.556 97.9205 183.523 98.0809 184.482 98.2451ZM178.67 97.3118L178.373 99.2896C177.418 99.1461 176.456 99.0063 175.487 98.8702L175.766 96.8897C176.741 97.0266 177.709 97.1673 178.67 97.3118ZM172.842 96.4931L172.582 98.4762C171.625 98.3509 170.661 98.2293 169.692 98.1113L169.933 96.1259C170.909 96.2446 171.878 96.367 172.842 96.4931ZM167 95.7823L166.776 97.7697C165.817 97.6617 164.852 97.5572 163.881 97.4563L164.088 95.467C165.064 95.5685 166.035 95.6736 167 95.7823ZM161.148 95.174L160.958 97.165C159.997 97.0733 159.03 96.9851 158.058 96.9004L158.232 94.908C159.209 94.9931 160.181 95.0818 161.148 95.174ZM155.288 94.6637L155.131 96.6575C154.167 96.5815 153.199 96.509 152.226 96.44L152.367 94.445C153.345 94.5143 154.319 94.5873 155.288 94.6637ZM149.421 94.2477L149.296 96.2438C148.33 96.1829 147.36 96.1255 146.386 96.0716L146.496 94.0747C147.475 94.1288 148.45 94.1865 149.421 94.2477ZM143.55 93.923L143.455 95.9207C142.487 95.8746 141.515 95.832 140.54 95.7928L140.62 93.7944C141.6 93.8338 142.577 93.8767 143.55 93.923ZM137.674 93.6872L137.609 95.6861C136.639 95.6544 135.666 95.6262 134.689 95.6014L134.74 93.6021C135.721 93.6269 136.699 93.6553 137.674 93.6872ZM131.795 93.5383C130.819 93.5207 129.84 93.5066 128.857 93.496L128.836 95.4959C129.813 95.5064 130.788 95.5204 131.759 95.538L131.795 93.5383ZM125.915 93.4748L125.908 95.4748C125.418 95.4731 124.928 95.4722 124.438 95.4722C123.947 95.4722 123.457 95.4731 122.967 95.4748L122.96 93.4748C123.452 93.4731 123.944 93.4722 124.438 93.4722C124.931 93.4722 125.423 93.4731 125.915 93.4748ZM120.018 93.496L120.039 95.4959C119.062 95.5064 118.087 95.5204 117.116 95.538L117.08 93.5383C118.056 93.5207 119.035 93.5066 120.018 93.496ZM114.135 93.6021L114.186 95.6014C113.209 95.6262 112.236 95.6544 111.266 95.6861L111.201 93.6872C112.176 93.6553 113.154 93.6269 114.135 93.6021ZM108.255 93.7944L108.336 95.7928C107.36 95.832 106.389 95.8746 105.421 95.9207L105.325 93.923C106.298 93.8767 107.275 93.8338 108.255 93.7944ZM102.379 94.0747L102.489 96.0716C101.515 96.1255 100.545 96.1829 99.5795 96.2438L99.4537 94.2477C100.425 94.1865 101.4 94.1288 102.379 94.0747ZM96.5079 94.445L96.6494 96.44C95.6765 96.509 94.7082 96.5815 93.7444 96.6575L93.5871 94.6637C94.5561 94.5873 95.5298 94.5143 96.5079 94.445ZM90.6434 94.908L90.8169 96.9004C89.8452 96.9851 88.8786 97.0733 87.917 97.165L87.7271 95.174C88.6941 95.0818 89.6663 94.9931 90.6434 94.908ZM84.7873 95.467L84.9941 97.4563C84.0235 97.5572 83.0585 97.6617 82.0992 97.7697L81.8753 95.7823C82.8403 95.6736 83.8111 95.5685 84.7873 95.467ZM78.9418 96.1259L79.1834 98.1113C78.2137 98.2293 77.2503 98.3509 76.2932 98.4762L76.0337 96.4931C76.9968 96.367 77.9662 96.2446 78.9418 96.1259ZM73.1096 96.8897L73.3878 98.8702C72.4189 99.0063 71.457 99.1461 70.5023 99.2896L70.205 97.3118C71.1662 97.1673 72.1345 97.0266 73.1096 96.8897ZM67.2943 97.764L67.6113 99.7388C66.6431 99.8942 65.6828 100.053 64.7304 100.216L64.393 98.2451C65.3523 98.0809 66.3194 97.9205 67.2943 97.764ZM61.5005 98.756L61.8591 100.724C60.8916 100.9 59.9329 101.08 58.9833 101.264L58.6027 99.3009C59.5597 99.1153 60.5257 98.9337 61.5005 98.756ZM55.7346 99.8742L56.1382 101.833C55.1716 102.032 54.215 102.235 53.2687 102.443L52.8409 100.489C53.7954 100.28 54.76 100.075 55.7346 99.8742ZM49.9792 101.135L50.4322 103.083C49.4758 103.305 48.5308 103.532 47.5973 103.763L47.1175 101.821C48.06 101.588 49.014 101.359 49.9792 101.135ZM44.261 102.549L44.7691 104.483C43.8248 104.731 42.8933 104.984 41.9752 105.24L41.4371 103.314C42.3654 103.055 43.3068 102.8 44.261 102.549ZM38.5992 104.132L39.1696 106.049C38.2274 106.329 37.3005 106.614 36.3893 106.903L35.7843 104.997C36.7074 104.704 37.6458 104.416 38.5992 104.132ZM33.0029 105.909L33.6451 107.804C32.7131 108.12 31.7993 108.44 30.9041 108.765L30.2212 106.886C31.1303 106.555 32.0577 106.23 33.0029 105.909ZM27.4609 107.925L28.1885 109.788C27.2753 110.145 26.384 110.507 25.5151 110.873L24.7382 109.03C25.624 108.657 26.5318 108.288 27.4609 107.925ZM22.0554 110.207L22.887 112.026C21.9963 112.434 21.1328 112.846 20.2973 113.263L19.404 111.474C20.2608 111.046 21.1449 110.624 22.0554 110.207ZM16.7907 112.842L17.7546 114.595C16.8967 115.067 16.0743 115.544 15.2883 116.026L14.2432 114.32C15.0575 113.821 15.9069 113.329 16.7907 112.842ZM11.7778 115.926L12.9173 117.569C12.1197 118.122 11.3705 118.68 10.6702 119.241L9.41962 117.68C10.1586 117.088 10.9451 116.503 11.7778 115.926ZM7.20809 119.609L8.58959 121.055C7.90269 121.711 7.2845 122.369 6.73469 123.027L5.20012 121.744C5.80214 121.024 6.4722 120.312 7.20809 119.609ZM3.47186 124.136L5.1787 125.179C4.70956 125.947 4.33519 126.71 4.0522 127.468L2.17857 126.769C2.50986 125.881 2.94215 125.004 3.47186 124.136ZM1.4709 129.612C1.40976 130.099 1.37891 130.588 1.37891 131.079C1.37891 131.571 1.40976 132.06 1.4709 132.547L3.45532 132.298C3.40448 131.893 3.37891 131.487 3.37891 131.079C3.37891 130.672 3.40448 130.266 3.45532 129.861L1.4709 129.612ZM2.17857 135.39L4.0522 134.691C4.33519 135.448 4.70956 136.212 5.1787 136.98L3.47186 138.023C2.94215 137.155 2.50986 136.277 2.17857 135.39ZM5.20012 140.415L6.73469 139.132C7.2845 139.79 7.90269 140.448 8.58959 141.104L7.20809 142.55C6.4722 141.847 5.80214 141.135 5.20012 140.415ZM9.41963 144.479L10.6702 142.918C11.3705 143.479 12.1197 144.037 12.9173 144.59L11.7778 146.233C10.9451 145.656 10.1586 145.071 9.41963 144.479ZM14.2432 147.838L15.2883 146.133C16.0743 146.615 16.8967 147.092 17.7547 147.564L16.7907 149.316C15.907 148.83 15.0575 148.338 14.2432 147.838ZM19.404 150.685L20.2974 148.896C21.1328 149.313 21.9963 149.725 22.887 150.133L22.0554 151.951C21.1449 151.535 20.2608 151.113 19.404 150.685ZM24.7382 153.129L25.5151 151.286C26.384 151.652 27.2753 152.014 28.1886 152.371L27.4609 154.234C26.5318 153.871 25.624 153.502 24.7382 153.129ZM30.2212 155.273L30.9041 153.393C31.7993 153.719 32.7131 154.039 33.6451 154.355L33.003 156.249C32.0578 155.929 31.1303 155.604 30.2212 155.273ZM35.7843 157.162L36.3893 155.256C37.3005 155.545 38.2274 155.83 39.1696 156.11L38.5992 158.027C37.6458 157.743 36.7074 157.455 35.7843 157.162ZM41.4371 158.845L41.9752 156.919C42.8933 157.175 43.8248 157.428 44.7691 157.676L44.261 159.61C43.3068 159.359 42.3654 159.104 41.4371 158.845ZM47.1175 160.338L47.5973 158.396C48.5308 158.627 49.4758 158.854 50.4322 159.076L49.9792 161.024C49.014 160.8 48.06 160.571 47.1175 160.338ZM52.8409 161.67L53.2687 159.716C54.215 159.923 55.1716 160.127 56.1382 160.326L55.7346 162.285C54.76 162.084 53.7954 161.879 52.8409 161.67ZM58.6027 162.858L58.9834 160.895C59.933 161.079 60.8916 161.259 61.8591 161.435L61.5005 163.403C60.5258 163.225 59.5597 163.044 58.6027 162.858ZM64.393 163.914L64.7304 161.943C65.6828 162.106 66.6431 162.265 67.6113 162.42L67.2943 164.395C66.3194 164.238 65.3523 164.078 64.393 163.914ZM70.205 164.847L70.5023 162.869C71.457 163.013 72.4189 163.153 73.3878 163.289L73.1096 165.269C72.1345 165.132 71.1662 164.992 70.205 164.847ZM76.0337 165.666L76.2932 163.683C77.2503 163.808 78.2137 163.93 79.1834 164.048L78.9418 166.033C77.9662 165.914 76.9968 165.792 76.0337 165.666ZM81.8753 166.377L82.0991 164.389C83.0585 164.497 84.0235 164.602 84.9941 164.703L84.7873 166.692C83.8111 166.59 82.8403 166.485 81.8753 166.377ZM87.7271 166.985L87.917 164.994C88.8786 165.086 89.8452 165.174 90.8169 165.258L90.6434 167.251C89.6663 167.166 88.6941 167.077 87.7271 166.985ZM93.5871 167.495L93.7444 165.501C94.7082 165.577 95.6765 165.65 96.6494 165.719L96.5079 167.714C95.5298 167.645 94.5561 167.572 93.5871 167.495ZM99.4537 167.911L99.5795 165.915C100.545 165.976 101.515 166.033 102.489 166.087L102.379 168.084C101.4 168.03 100.425 167.972 99.4537 167.911ZM105.325 168.236L105.421 166.238C106.389 166.284 107.36 166.327 108.336 166.366L108.255 168.364C107.275 168.325 106.298 168.282 105.325 168.236ZM111.201 168.472L111.266 166.473C112.236 166.504 113.209 166.533 114.186 166.557L114.135 168.557C113.154 168.532 112.176 168.504 111.201 168.472ZM117.08 168.621L117.116 166.621C118.087 166.638 119.062 166.653 120.039 166.663L120.018 168.663C119.035 168.652 118.056 168.638 117.08 168.621ZM122.96 168.684L122.967 166.684C123.457 166.686 123.947 166.687 124.438 166.687C124.928 166.687 125.418 166.686 125.908 166.684L125.915 168.684C125.423 168.686 124.931 168.687 124.438 168.687C123.944 168.687 123.452 168.686 122.96 168.684ZM128.857 168.663C129.84 168.652 130.819 168.638 131.795 168.621L131.759 166.621C130.788 166.638 129.813 166.653 128.836 166.663L128.857 168.663ZM134.74 168.557L134.689 166.557C135.666 166.533 136.639 166.504 137.609 166.473L137.674 168.472C136.699 168.504 135.721 168.532 134.74 168.557ZM140.62 168.364L140.54 166.366C141.515 166.327 142.487 166.284 143.455 166.238L143.55 168.236C142.577 168.282 141.6 168.325 140.62 168.364ZM146.496 168.084L146.386 166.087C147.36 166.033 148.33 165.976 149.296 165.915L149.421 167.911C148.45 167.972 147.475 168.03 146.496 168.084ZM152.367 167.714L152.226 165.719C153.199 165.65 154.167 165.577 155.131 165.501L155.288 167.495C154.319 167.572 153.345 167.645 152.367 167.714ZM158.232 167.251L158.058 165.258C159.03 165.174 159.997 165.086 160.958 164.994L161.148 166.985C160.181 167.077 159.209 167.166 158.232 167.251ZM164.088 166.692L163.881 164.703C164.852 164.602 165.817 164.497 166.776 164.389L167 166.377C166.035 166.485 165.064 166.59 164.088 166.692ZM169.933 166.033L169.692 164.048C170.661 163.93 171.625 163.808 172.582 163.683L172.842 165.666C171.878 165.792 170.909 165.914 169.933 166.033ZM175.766 165.269L175.487 163.289C176.456 163.153 177.418 163.013 178.373 162.869L178.67 164.847C177.709 164.992 176.741 165.132 175.766 165.269ZM181.581 164.395L181.264 162.42C182.232 162.265 183.192 162.106 184.145 161.943L184.482 163.914C183.523 164.078 182.556 164.238 181.581 164.395ZM187.375 163.403L187.016 161.435C187.984 161.259 188.942 161.079 189.892 160.895L190.273 162.858C189.315 163.044 188.349 163.225 187.375 163.403ZM193.141 162.285L192.737 160.326C193.704 160.127 194.66 159.923 195.606 159.716L196.034 161.67C195.08 161.879 194.115 162.084 193.141 162.285ZM198.896 161.024L198.443 159.076C199.399 158.854 200.344 158.627 201.278 158.396L201.758 160.338C200.815 160.571 199.861 160.8 198.896 161.024ZM204.614 159.61L204.106 157.676C205.05 157.428 205.982 157.175 206.9 156.919L207.438 158.845C206.51 159.104 205.568 159.359 204.614 159.61ZM210.276 158.027L209.706 156.11C210.648 155.83 211.575 155.545 212.486 155.256L213.091 157.162C212.168 157.455 211.229 157.743 210.276 158.027ZM215.872 156.249L215.23 154.355C216.162 154.039 217.076 153.719 217.971 153.393L218.654 155.273C217.745 155.604 216.817 155.929 215.872 156.249ZM221.414 154.234L220.687 152.371C221.6 152.014 222.491 151.652 223.36 151.286L224.137 153.129C223.251 153.502 222.343 153.871 221.414 154.234ZM226.82 151.951L225.988 150.133C226.879 149.725 227.742 149.313 228.578 148.896L229.471 150.685C228.614 151.113 227.73 151.535 226.82 151.951ZM232.085 149.316L231.121 147.564C231.979 147.092 232.801 146.615 233.587 146.133L234.632 147.838C233.818 148.338 232.968 148.83 232.085 149.316ZM237.097 146.233L235.958 144.59C236.755 144.037 237.505 143.479 238.205 142.918L239.456 144.479C238.717 145.071 237.93 145.656 237.097 146.233ZM241.667 142.55L240.286 141.104C240.972 140.448 241.591 139.79 242.14 139.132L243.675 140.415C243.073 141.135 242.403 141.847 241.667 142.55ZM245.403 138.023L243.696 136.98C244.166 136.212 244.54 135.448 244.823 134.691L246.697 135.39C246.365 136.277 245.933 137.155 245.403 138.023Z" fill="#0090E3"/>
<path d="M161.041 114.82H160.963C160.744 114.768 160.531 114.732 160.322 114.711C160.119 114.685 159.877 114.672 159.596 114.672C159.143 114.672 158.705 114.773 158.283 114.977C157.861 115.174 157.455 115.432 157.064 115.75V121.945H155.596V113.219H157.064V114.508C157.648 114.039 158.161 113.708 158.604 113.516C159.051 113.318 159.507 113.219 159.971 113.219C160.226 113.219 160.411 113.227 160.525 113.242C160.64 113.253 160.812 113.276 161.041 113.312V114.82ZM169.205 121.945H167.744V121.016C167.614 121.104 167.437 121.229 167.213 121.391C166.994 121.547 166.781 121.672 166.572 121.766C166.327 121.885 166.046 121.984 165.729 122.062C165.411 122.146 165.038 122.188 164.611 122.188C163.825 122.188 163.158 121.927 162.611 121.406C162.064 120.885 161.791 120.221 161.791 119.414C161.791 118.753 161.932 118.219 162.213 117.812C162.499 117.401 162.906 117.078 163.432 116.844C163.963 116.609 164.601 116.451 165.346 116.367C166.09 116.284 166.89 116.221 167.744 116.18V115.953C167.744 115.62 167.684 115.344 167.564 115.125C167.45 114.906 167.283 114.734 167.064 114.609C166.856 114.49 166.606 114.409 166.314 114.367C166.023 114.326 165.718 114.305 165.4 114.305C165.015 114.305 164.585 114.357 164.111 114.461C163.637 114.56 163.148 114.706 162.643 114.898H162.564V113.406C162.851 113.328 163.265 113.242 163.807 113.148C164.348 113.055 164.882 113.008 165.408 113.008C166.023 113.008 166.557 113.06 167.01 113.164C167.468 113.263 167.864 113.435 168.197 113.68C168.525 113.919 168.775 114.229 168.947 114.609C169.119 114.99 169.205 115.461 169.205 116.023V121.945ZM167.744 119.797V117.367C167.296 117.393 166.768 117.432 166.158 117.484C165.554 117.536 165.075 117.612 164.721 117.711C164.299 117.831 163.958 118.018 163.697 118.273C163.437 118.523 163.307 118.87 163.307 119.312C163.307 119.812 163.458 120.19 163.76 120.445C164.062 120.695 164.523 120.82 165.143 120.82C165.658 120.82 166.13 120.721 166.557 120.523C166.984 120.32 167.38 120.078 167.744 119.797ZM179.111 121.945H177.643V121.031C177.221 121.396 176.781 121.68 176.322 121.883C175.864 122.086 175.367 122.188 174.83 122.188C173.788 122.188 172.96 121.786 172.346 120.984C171.736 120.182 171.432 119.07 171.432 117.648C171.432 116.909 171.536 116.25 171.744 115.672C171.958 115.094 172.244 114.602 172.604 114.195C172.958 113.799 173.369 113.497 173.838 113.289C174.312 113.081 174.801 112.977 175.307 112.977C175.765 112.977 176.171 113.026 176.525 113.125C176.88 113.219 177.252 113.367 177.643 113.57V109.789H179.111V121.945ZM177.643 119.797V114.789C177.247 114.612 176.893 114.49 176.58 114.422C176.268 114.354 175.926 114.32 175.557 114.32C174.734 114.32 174.093 114.607 173.635 115.18C173.176 115.753 172.947 116.565 172.947 117.617C172.947 118.654 173.124 119.443 173.479 119.984C173.833 120.521 174.4 120.789 175.182 120.789C175.598 120.789 176.02 120.698 176.447 120.516C176.874 120.328 177.273 120.089 177.643 119.797ZM183.58 111.758H181.924V110.234H183.58V111.758ZM183.486 121.945H182.018V113.219H183.486V121.945ZM193.627 121.945H192.158V120.977C191.663 121.367 191.189 121.667 190.736 121.875C190.283 122.083 189.783 122.188 189.236 122.188C188.32 122.188 187.606 121.909 187.096 121.352C186.585 120.789 186.33 119.966 186.33 118.883V113.219H187.799V118.188C187.799 118.63 187.82 119.01 187.861 119.328C187.903 119.641 187.992 119.909 188.127 120.133C188.268 120.362 188.45 120.529 188.674 120.633C188.898 120.737 189.223 120.789 189.65 120.789C190.031 120.789 190.445 120.69 190.893 120.492C191.346 120.294 191.768 120.042 192.158 119.734V113.219H193.627V121.945ZM202.752 119.43C202.752 120.227 202.421 120.88 201.76 121.391C201.104 121.901 200.205 122.156 199.064 122.156C198.419 122.156 197.825 122.081 197.283 121.93C196.747 121.773 196.296 121.604 195.932 121.422V119.773H196.01C196.473 120.122 196.989 120.401 197.557 120.609C198.124 120.812 198.669 120.914 199.189 120.914C199.835 120.914 200.34 120.81 200.705 120.602C201.07 120.393 201.252 120.065 201.252 119.617C201.252 119.273 201.153 119.013 200.955 118.836C200.757 118.659 200.377 118.508 199.814 118.383C199.606 118.336 199.333 118.281 198.994 118.219C198.661 118.156 198.356 118.089 198.08 118.016C197.314 117.812 196.77 117.516 196.447 117.125C196.13 116.729 195.971 116.245 195.971 115.672C195.971 115.312 196.044 114.974 196.189 114.656C196.34 114.339 196.567 114.055 196.869 113.805C197.161 113.56 197.531 113.367 197.979 113.227C198.432 113.081 198.937 113.008 199.494 113.008C200.015 113.008 200.541 113.073 201.072 113.203C201.609 113.328 202.054 113.482 202.408 113.664V115.234H202.33C201.955 114.958 201.499 114.727 200.963 114.539C200.426 114.346 199.9 114.25 199.385 114.25C198.848 114.25 198.395 114.354 198.025 114.562C197.656 114.766 197.471 115.07 197.471 115.477C197.471 115.836 197.583 116.107 197.807 116.289C198.025 116.471 198.38 116.62 198.869 116.734C199.14 116.797 199.442 116.859 199.775 116.922C200.114 116.984 200.395 117.042 200.619 117.094C201.301 117.25 201.827 117.518 202.197 117.898C202.567 118.284 202.752 118.794 202.752 119.43Z" fill="#202020"/>
<circle cx="128.013" cy="130.341" r="3.5" fill="#545454"/>
</svg>
